# xmcd
#
# Track frame offsets:
#	150
#	17691
#	34718
#	52101
#	70731
#	87733
#	109322
#	125279
#	139409
#	153204
#	165741
#	182902
#	199110
#	215664
#	230612
#	248232
#	262506
#	276934
#	293360
#	307649
#	324404
#
# Disc length: 4536 seconds
#
# Revision: 0
# Processed by: cddbd v1.5.2PL0 Copyright (c) Steve Scherf et al.
# Submitted via: EasyCDDAExtractor 11.5.0.1
#
DISCID=2a11b615
DTITLE=Various Artist - NCT 137
DYEAR=2010
DGENRE=Country
TTITLE0=Taylor Swift - Mine
TTITLE1=Zac Brown Band ft. Alan Jackson - As She's Walking Away
TTITLE2=Jason Aldean - My Kinda Party
TTITLE3=Brad Paisley - Anything Like Me
TTITLE4=Rascal Flatts - Why Wait
TTITLE5=James Otto - Soldiers and Jesus
TTITLE6=Dierks Bentley - Draw Me A Map
TTITLE7=Joanna Smith - Gettin'  Married
TTITLE8=Jaron and The Road To Love - That's Beautiful To Me
TTITLE9=The Lost Trailers - Shakin' That Tailgate
TTITLE10=Gwyneth Paltrow - Country Song
TTITLE11=Ashley Gearing - What You Think About Us
TTITLE12=Margaret Durante - Mississippi's Cryin'
TTITLE13=Crossin Dixon - Lovin' In The Country
TTITLE14=Jamey Johnson - Playin The Part
TTITLE15=Blaine Larsen - Leavin'
TTITLE16=Laura Bell Bundy - Drop On By
TTITLE17=Jason Sturgeon - Rollin' On
TTITLE18=Mike Aiken - Love You Tonight
TTITLE19=The Roys - Beautiful
TTITLE20=LoCash Cowboys - Keep In Mind
EXTD=
EXTT0=
EXTT1=
EXTT2=
EXTT3=
EXTT4=
EXTT5=
EXTT6=
EXTT7=
EXTT8=
EXTT9=
EXTT10=
EXTT11=
EXTT12=
EXTT13=
EXTT14=
EXTT15=
EXTT16=
EXTT17=
EXTT18=
EXTT19=
EXTT20=
PLAYORDER=
